REM MD5 72122745b504876fa6a8a375772b0a36
FILE "Fighting Force (Europe) (En,Fr,De) (Demo).bin" BINARY
  TRACK 01 MODE2/2352
    INDEX 01 00:00:00
  TRACK 02 AUDIO
    INDEX 00 02:37:68
    INDEX 01 02:39:68
  TRACK 03 AUDIO
    INDEX 00 02:58:08
    INDEX 01 03:00:08
  TRACK 04 AUDIO
    INDEX 00 05:03:48
    INDEX 01 05:05:48
  TRACK 05 AUDIO
    INDEX 00 07:32:10
    INDEX 01 07:34:10
  TRACK 06 AUDIO
    INDEX 00 09:46:30
    INDEX 01 09:48:30
REM LEADOUT 14:48:30
